<svg width="2757" height="2268" viewBox="0 0 2757 2268" fill="none" xmlns="http://www.w3.org/2000/svg">
<path d="M322.369 318.273V45.5454H385.438V66.4261H346.233V297.392H385.438V318.273H322.369ZM512.453 170.19V193.628H416.998V170.19H512.453ZM546.011 291V271.824L618.028 192.989C626.48 183.756 633.44 175.73 638.909 168.912C644.377 162.023 648.426 155.56 651.054 149.523C653.752 143.415 655.102 137.023 655.102 130.347C655.102 122.676 653.255 116.036 649.562 110.425C645.94 104.814 640.968 100.482 634.647 97.4276C628.326 94.3736 621.224 92.8466 613.341 92.8466C604.96 92.8466 597.645 94.5866 591.395 98.0668C585.216 101.476 580.422 106.27 577.012 112.449C573.674 118.628 572.005 125.872 572.005 134.182H546.863C546.863 121.398 549.811 110.176 555.706 100.517C561.6 90.8579 569.626 83.3295 579.782 77.9318C590.01 72.5341 601.48 69.8352 614.193 69.8352C626.977 69.8352 638.305 72.5341 648.177 77.9318C658.049 83.3295 665.791 90.6094 671.402 99.7713C677.012 108.933 679.818 119.125 679.818 130.347C679.818 138.372 678.362 146.22 675.45 153.891C672.609 161.49 667.637 169.977 660.535 179.352C653.504 188.656 643.738 200.02 631.238 213.443L582.233 265.858V267.562H683.653V291H546.011ZM798.816 293.983C782.765 293.983 769.093 289.615 757.801 280.879C746.508 272.072 737.879 259.324 731.913 242.634C725.947 225.872 722.964 205.631 722.964 181.909C722.964 158.33 725.947 138.195 731.913 121.504C737.95 104.743 746.615 91.9588 757.907 83.152C769.271 74.2741 782.907 69.8352 798.816 69.8352C814.725 69.8352 828.326 74.2741 839.619 83.152C850.983 91.9588 859.647 104.743 865.613 121.504C871.65 138.195 874.669 158.33 874.669 181.909C874.669 205.631 871.686 225.872 865.72 242.634C859.754 259.324 851.125 272.072 839.832 280.879C828.539 289.615 814.868 293.983 798.816 293.983ZM798.816 270.545C814.725 270.545 827.083 262.875 835.89 247.534C844.697 232.193 849.101 210.318 849.101 181.909C849.101 163.017 847.076 146.93 843.028 133.649C839.051 120.368 833.298 110.247 825.77 103.287C818.312 96.3267 809.328 92.8466 798.816 92.8466C783.049 92.8466 770.727 100.624 761.849 116.178C752.971 131.661 748.532 153.571 748.532 181.909C748.532 200.801 750.521 216.852 754.498 230.062C758.475 243.273 764.193 253.322 771.65 260.212C779.179 267.101 788.234 270.545 798.816 270.545ZM945.461 261.17L943.756 272.676C942.549 280.773 940.702 289.438 938.216 298.67C935.801 307.903 933.28 316.604 930.652 324.771C928.025 332.939 925.858 339.438 924.154 344.267H904.978C905.901 339.722 907.108 333.72 908.6 326.263C910.091 318.805 911.583 310.46 913.074 301.227C914.637 292.065 915.915 282.69 916.909 273.102L918.188 261.17H945.461ZM1152.7 72.8182V291H1126.28V100.517H1125L1071.73 135.886V109.04L1126.28 72.8182H1152.7ZM1286.61 293.983C1270.56 293.983 1256.89 289.615 1245.59 280.879C1234.3 272.072 1225.67 259.324 1219.71 242.634C1213.74 225.872 1210.76 205.631 1210.76 181.909C1210.76 158.33 1213.74 138.195 1219.71 121.504C1225.74 104.743 1234.41 91.9588 1245.7 83.152C1257.06 74.2741 1270.7 69.8352 1286.61 69.8352C1302.52 69.8352 1316.12 74.2741 1327.41 83.152C1338.78 91.9588 1347.44 104.743 1353.41 121.504C1359.44 138.195 1362.46 158.33 1362.46 181.909C1362.46 205.631 1359.48 225.872 1353.51 242.634C1347.55 259.324 1338.92 272.072 1327.62 280.879C1316.33 289.615 1302.66 293.983 1286.61 293.983ZM1286.61 270.545C1302.52 270.545 1314.88 262.875 1323.68 247.534C1332.49 232.193 1336.89 210.318 1336.89 181.909C1336.89 163.017 1334.87 146.93 1330.82 133.649C1326.84 120.368 1321.09 110.247 1313.56 103.287C1306.11 96.3267 1297.12 92.8466 1286.61 92.8466C1270.84 92.8466 1258.52 100.624 1249.64 116.178C1240.76 131.661 1236.33 153.571 1236.33 181.909C1236.33 200.801 1238.31 216.852 1242.29 230.062C1246.27 243.273 1251.99 253.322 1259.44 260.212C1266.97 267.101 1276.03 270.545 1286.61 270.545ZM1433.25 261.17L1431.55 272.676C1430.34 280.773 1428.5 289.438 1426.01 298.67C1423.59 307.903 1421.07 316.604 1418.45 324.771C1415.82 332.939 1413.65 339.438 1411.95 344.267H1392.77C1393.69 339.722 1394.9 333.72 1396.39 326.263C1397.88 318.805 1399.38 310.46 1400.87 301.227C1402.43 292.065 1403.71 282.69 1404.7 273.102L1405.98 261.17H1433.25ZM1657.96 170.19V193.628H1562.51V170.19H1657.96ZM1769.95 293.983C1757.45 293.983 1746.2 291.497 1736.18 286.526C1726.17 281.554 1718.14 274.736 1712.11 266.071C1706.07 257.406 1702.77 247.534 1702.2 236.455H1727.77C1728.76 246.327 1733.24 254.494 1741.19 260.957C1749.22 267.349 1758.8 270.545 1769.95 270.545C1778.9 270.545 1786.86 268.45 1793.82 264.26C1800.85 260.07 1806.35 254.317 1810.33 247.001C1814.38 239.615 1816.4 231.27 1816.4 221.966C1816.4 212.449 1814.31 203.962 1810.12 196.504C1806 188.976 1800.32 183.045 1793.07 178.713C1785.83 174.381 1777.55 172.179 1768.25 172.108C1761.57 172.037 1754.72 173.067 1747.69 175.197C1740.66 177.257 1734.87 179.92 1730.32 183.188L1705.61 180.205L1718.82 72.8182H1832.17V96.2557H1740.98L1733.31 160.602H1734.59C1739.06 157.051 1744.67 154.104 1751.42 151.76C1758.16 149.416 1765.2 148.244 1772.51 148.244C1785.86 148.244 1797.76 151.44 1808.2 157.832C1818.71 164.153 1826.95 172.818 1832.92 183.827C1838.95 194.835 1841.97 207.406 1841.97 221.54C1841.97 235.46 1838.85 247.889 1832.6 258.827C1826.42 269.693 1817.89 278.287 1807.03 284.608C1796.16 290.858 1783.8 293.983 1769.95 293.983ZM1914.02 261.17L1912.31 272.676C1911.1 280.773 1909.26 289.438 1906.77 298.67C1904.36 307.903 1901.83 316.604 1899.21 324.771C1896.58 332.939 1894.41 339.438 1892.71 344.267H1873.53C1874.46 339.722 1875.66 333.72 1877.15 326.263C1878.65 318.805 1880.14 310.46 1881.63 301.227C1883.19 292.065 1884.47 282.69 1885.46 273.102L1886.74 261.17H1914.02ZM2121.25 72.8182V291H2094.83V100.517H2093.55L2040.28 135.886V109.04L2094.83 72.8182H2121.25ZM2252.18 293.983C2239.68 293.983 2228.42 291.497 2218.41 286.526C2208.4 281.554 2200.37 274.736 2194.33 266.071C2188.3 257.406 2184.99 247.534 2184.43 236.455H2209.99C2210.99 246.327 2215.46 254.494 2223.42 260.957C2231.44 267.349 2241.03 270.545 2252.18 270.545C2261.13 270.545 2269.08 268.45 2276.04 264.26C2283.08 260.07 2288.58 254.317 2292.56 247.001C2296.61 239.615 2298.63 231.27 2298.63 221.966C2298.63 212.449 2296.53 203.962 2292.34 196.504C2288.23 188.976 2282.54 183.045 2275.3 178.713C2268.05 174.381 2259.78 172.179 2250.48 172.108C2243.8 172.037 2236.95 173.067 2229.92 175.197C2222.88 177.257 2217.1 179.92 2212.55 183.188L2187.83 180.205L2201.04 72.8182H2314.4V96.2557H2223.2L2215.53 160.602H2216.81C2221.29 157.051 2226.9 154.104 2233.64 151.76C2240.39 149.416 2247.42 148.244 2254.74 148.244C2268.09 148.244 2279.99 151.44 2290.43 157.832C2300.94 164.153 2309.18 172.818 2315.14 183.827C2321.18 194.835 2324.2 207.406 2324.2 221.54C2324.2 235.46 2321.07 247.889 2314.82 258.827C2308.64 269.693 2300.12 278.287 2289.25 284.608C2278.39 290.858 2266.03 293.983 2252.18 293.983ZM2417.23 45.5454V318.273H2354.16V297.392H2393.37V66.4261H2354.16V45.5454H2417.23Z" fill="#006CA9"/>
<path d="M59.6591 637.506V996.312H38.3523V637.506H59.6591ZM214.906 805.19V828.628H119.451V805.19H214.906ZM248.464 926V906.824L320.481 827.989C328.933 818.756 335.893 810.73 341.362 803.912C346.831 797.023 350.879 790.56 353.507 784.523C356.206 778.415 357.555 772.023 357.555 765.347C357.555 757.676 355.708 751.036 352.015 745.425C348.393 739.814 343.422 735.482 337.101 732.428C330.779 729.374 323.677 727.847 315.794 727.847C307.413 727.847 300.098 729.587 293.848 733.067C287.669 736.476 282.875 741.27 279.466 747.449C276.127 753.628 274.458 760.872 274.458 769.182H249.316C249.316 756.398 252.264 745.176 258.159 735.517C264.054 725.858 272.079 718.33 282.235 712.932C292.463 707.534 303.933 704.835 316.646 704.835C329.43 704.835 340.758 707.534 350.63 712.932C360.502 718.33 368.244 725.609 373.855 734.771C379.466 743.933 382.271 754.125 382.271 765.347C382.271 773.372 380.815 781.22 377.903 788.891C375.062 796.49 370.091 804.977 362.988 814.352C355.957 823.656 346.191 835.02 333.691 848.443L284.686 900.858V902.562H386.106V926H248.464ZM501.27 928.983C485.218 928.983 471.547 924.615 460.254 915.879C448.961 907.072 440.332 894.324 434.366 877.634C428.4 860.872 425.417 840.631 425.417 816.909C425.417 793.33 428.4 773.195 434.366 756.504C440.403 739.743 449.068 726.959 460.36 718.152C471.724 709.274 485.36 704.835 501.27 704.835C517.179 704.835 530.779 709.274 542.072 718.152C553.436 726.959 562.101 739.743 568.066 756.504C574.103 773.195 577.122 793.33 577.122 816.909C577.122 840.631 574.139 860.872 568.173 877.634C562.207 894.324 553.578 907.072 542.285 915.879C530.993 924.615 517.321 928.983 501.27 928.983ZM501.27 905.545C517.179 905.545 529.537 897.875 538.343 882.534C547.15 867.193 551.554 845.318 551.554 816.909C551.554 798.017 549.529 781.93 545.481 768.649C541.504 755.368 535.751 745.247 528.223 738.287C520.765 731.327 511.781 727.847 501.27 727.847C485.502 727.847 473.18 735.624 464.302 751.178C455.424 766.661 450.985 788.571 450.985 816.909C450.985 835.801 452.974 851.852 456.951 865.062C460.929 878.273 466.646 888.322 474.103 895.212C481.632 902.101 490.687 905.545 501.27 905.545ZM654.679 637.506V996.312H633.372V637.506H654.679ZM753.675 896.17L751.971 907.676C750.763 915.773 748.917 924.438 746.431 933.67C744.016 942.903 741.495 951.604 738.867 959.771C736.239 967.939 734.073 974.438 732.369 979.267H713.192C714.116 974.722 715.323 968.72 716.815 961.263C718.306 953.805 719.798 945.46 721.289 936.227C722.852 927.065 724.13 917.69 725.124 908.102L726.403 896.17H753.675ZM921.28 637.506V996.312H899.973V637.506H921.28ZM1059.06 707.818V926H1032.63V735.517H1031.36L978.089 770.886V744.04L1032.63 707.818H1059.06ZM1192.97 928.983C1176.92 928.983 1163.25 924.615 1151.95 915.879C1140.66 907.072 1132.03 894.324 1126.07 877.634C1120.1 860.872 1117.12 840.631 1117.12 816.909C1117.12 793.33 1120.1 773.195 1126.07 756.504C1132.1 739.743 1140.77 726.959 1152.06 718.152C1163.42 709.274 1177.06 704.835 1192.97 704.835C1208.88 704.835 1222.48 709.274 1233.77 718.152C1245.13 726.959 1253.8 739.743 1259.77 756.504C1265.8 773.195 1268.82 793.33 1268.82 816.909C1268.82 840.631 1265.84 860.872 1259.87 877.634C1253.91 894.324 1245.28 907.072 1233.98 915.879C1222.69 924.615 1209.02 928.983 1192.97 928.983ZM1192.97 905.545C1208.88 905.545 1221.24 897.875 1230.04 882.534C1238.85 867.193 1243.25 845.318 1243.25 816.909C1243.25 798.017 1241.23 781.93 1237.18 768.649C1233.2 755.368 1227.45 745.247 1219.92 738.287C1212.46 731.327 1203.48 727.847 1192.97 727.847C1177.2 727.847 1164.88 735.624 1156 751.178C1147.12 766.661 1142.68 788.571 1142.68 816.909C1142.68 835.801 1144.67 851.852 1148.65 865.062C1152.63 878.273 1158.35 888.322 1165.8 895.212C1173.33 902.101 1182.39 905.545 1192.97 905.545ZM1346.38 637.506V996.312H1325.07V637.506H1346.38ZM1445.37 896.17L1443.67 907.676C1442.46 915.773 1440.62 924.438 1438.13 933.67C1435.72 942.903 1433.19 951.604 1430.57 959.771C1427.94 967.939 1425.77 974.438 1424.07 979.267H1404.89C1405.81 974.722 1407.02 968.72 1408.51 961.263C1410.01 953.805 1411.5 945.46 1412.99 936.227C1414.55 927.065 1415.83 917.69 1416.82 908.102L1418.1 896.17H1445.37ZM1612.98 637.506V996.312H1591.67V637.506H1612.98ZM1768.23 805.19V828.628H1672.77V805.19H1768.23ZM1880.22 928.983C1867.72 928.983 1856.46 926.497 1846.45 921.526C1836.43 916.554 1828.41 909.736 1822.37 901.071C1816.34 892.406 1813.03 882.534 1812.46 871.455H1838.03C1839.03 881.327 1843.5 889.494 1851.46 895.957C1859.48 902.349 1869.07 905.545 1880.22 905.545C1889.17 905.545 1897.12 903.45 1904.08 899.26C1911.12 895.07 1916.62 889.317 1920.6 882.001C1924.64 874.615 1926.67 866.27 1926.67 856.966C1926.67 847.449 1924.57 838.962 1920.38 831.504C1916.26 823.976 1910.58 818.045 1903.34 813.713C1896.09 809.381 1887.82 807.179 1878.52 807.108C1871.84 807.037 1864.99 808.067 1857.95 810.197C1850.92 812.257 1845.13 814.92 1840.59 818.188L1815.87 815.205L1829.08 707.818H1942.44V731.256H1851.24L1843.57 795.602H1844.85C1849.33 792.051 1854.94 789.104 1861.68 786.76C1868.43 784.416 1875.46 783.244 1882.78 783.244C1896.13 783.244 1908.03 786.44 1918.47 792.832C1928.98 799.153 1937.22 807.818 1943.18 818.827C1949.22 829.835 1952.24 842.406 1952.24 856.54C1952.24 870.46 1949.11 882.889 1942.86 893.827C1936.68 904.693 1928.16 913.287 1917.29 919.608C1906.43 925.858 1894.07 928.983 1880.22 928.983ZM2031.63 637.506V996.312H2010.32V637.506H2031.63ZM2130.63 896.17L2128.92 907.676C2127.72 915.773 2125.87 924.438 2123.38 933.67C2120.97 942.903 2118.45 951.604 2115.82 959.771C2113.19 967.939 2111.03 974.438 2109.32 979.267H2090.15C2091.07 974.722 2092.28 968.72 2093.77 961.263C2095.26 953.805 2096.75 945.46 2098.24 936.227C2099.8 927.065 2101.08 917.69 2102.08 908.102L2103.36 896.17H2130.63ZM2298.23 637.506V996.312H2276.93V637.506H2298.23ZM2436.01 707.818V926H2409.59V735.517H2408.31L2355.04 770.886V744.04L2409.59 707.818H2436.01ZM2566.94 928.983C2554.44 928.983 2543.18 926.497 2533.17 921.526C2523.15 916.554 2515.13 909.736 2509.09 901.071C2503.05 892.406 2499.75 882.534 2499.18 871.455H2524.75C2525.75 881.327 2530.22 889.494 2538.17 895.957C2546.2 902.349 2555.79 905.545 2566.94 905.545C2575.89 905.545 2583.84 903.45 2590.8 899.26C2597.83 895.07 2603.34 889.317 2607.32 882.001C2611.36 874.615 2613.39 866.27 2613.39 856.966C2613.39 847.449 2611.29 838.962 2607.1 831.504C2602.98 823.976 2597.3 818.045 2590.06 813.713C2582.81 809.381 2574.54 807.179 2565.23 807.108C2558.56 807.037 2551.7 808.067 2544.67 810.197C2537.64 812.257 2531.85 814.92 2527.31 818.188L2502.59 815.205L2515.8 707.818H2629.15V731.256H2537.96L2530.29 795.602H2531.57C2536.04 792.051 2541.65 789.104 2548.4 786.76C2555.15 784.416 2562.18 783.244 2569.5 783.244C2582.85 783.244 2594.74 786.44 2605.18 792.832C2615.7 799.153 2623.93 807.818 2629.9 818.827C2635.94 829.835 2638.96 842.406 2638.96 856.54C2638.96 870.46 2635.83 882.889 2629.58 893.827C2623.4 904.693 2614.88 913.287 2604.01 919.608C2593.15 925.858 2580.79 928.983 2566.94 928.983ZM2718.35 637.506V996.312H2697.04V637.506H2718.35Z" fill="#737370"/>
<path d="M551.585 1561V1541.82L623.602 1462.99C632.054 1453.76 639.014 1445.73 644.483 1438.91C649.952 1432.02 654 1425.56 656.628 1419.52C659.327 1413.41 660.676 1407.02 660.676 1400.35C660.676 1392.68 658.83 1386.04 655.136 1380.42C651.514 1374.81 646.543 1370.48 640.222 1367.43C633.901 1364.37 626.798 1362.85 618.915 1362.85C610.534 1362.85 603.219 1364.59 596.969 1368.07C590.79 1371.48 585.996 1376.27 582.587 1382.45C579.249 1388.63 577.58 1395.87 577.58 1404.18H552.438C552.438 1391.4 555.385 1380.18 561.28 1370.52C567.175 1360.86 575.2 1353.33 585.357 1347.93C595.584 1342.53 607.054 1339.84 619.767 1339.84C632.551 1339.84 643.879 1342.53 653.751 1347.93C663.624 1353.33 671.365 1360.61 676.976 1369.77C682.587 1378.93 685.392 1389.12 685.392 1400.35C685.392 1408.37 683.936 1416.22 681.024 1423.89C678.183 1431.49 673.212 1439.98 666.109 1449.35C659.078 1458.66 649.312 1470.02 636.812 1483.44L587.807 1535.86V1537.56H689.227V1561H551.585ZM804.391 1563.98C788.339 1563.98 774.668 1559.62 763.375 1550.88C752.082 1542.07 743.453 1529.32 737.487 1512.63C731.521 1495.87 728.538 1475.63 728.538 1451.91C728.538 1428.33 731.521 1408.19 737.487 1391.5C743.524 1374.74 752.189 1361.96 763.482 1353.15C774.845 1344.27 788.482 1339.84 804.391 1339.84C820.3 1339.84 833.901 1344.27 845.193 1353.15C856.557 1361.96 865.222 1374.74 871.188 1391.5C877.224 1408.19 880.243 1428.33 880.243 1451.91C880.243 1475.63 877.26 1495.87 871.294 1512.63C865.328 1529.32 856.699 1542.07 845.406 1550.88C834.114 1559.62 820.442 1563.98 804.391 1563.98ZM804.391 1540.55C820.3 1540.55 832.658 1532.87 841.464 1517.53C850.271 1502.19 854.675 1480.32 854.675 1451.91C854.675 1433.02 852.651 1416.93 848.602 1403.65C844.625 1390.37 838.872 1380.25 831.344 1373.29C823.886 1366.33 814.902 1362.85 804.391 1362.85C788.624 1362.85 776.301 1370.62 767.423 1386.18C758.545 1401.66 754.107 1423.57 754.107 1451.91C754.107 1470.8 756.095 1486.85 760.072 1500.06C764.05 1513.27 769.767 1523.32 777.224 1530.21C784.753 1537.1 793.808 1540.55 804.391 1540.55ZM951.035 1531.17L949.33 1542.68C948.123 1550.77 946.276 1559.44 943.79 1568.67C941.376 1577.9 938.854 1586.6 936.227 1594.77C933.599 1602.94 931.433 1609.44 929.728 1614.27H910.552C911.475 1609.72 912.683 1603.72 914.174 1596.26C915.665 1588.81 917.157 1580.46 918.648 1571.23C920.211 1562.07 921.489 1552.69 922.484 1543.1L923.762 1531.17H951.035ZM1158.27 1342.82V1561H1131.85V1370.52H1130.57L1077.3 1405.89V1379.04L1131.85 1342.82H1158.27ZM1292.18 1563.98C1276.13 1563.98 1262.46 1559.62 1251.17 1550.88C1239.88 1542.07 1231.25 1529.32 1225.28 1512.63C1219.31 1495.87 1216.33 1475.63 1216.33 1451.91C1216.33 1428.33 1219.31 1408.19 1225.28 1391.5C1231.32 1374.74 1239.98 1361.96 1251.27 1353.15C1262.64 1344.27 1276.27 1339.84 1292.18 1339.84C1308.09 1339.84 1321.69 1344.27 1332.99 1353.15C1344.35 1361.96 1353.01 1374.74 1358.98 1391.5C1365.02 1408.19 1368.04 1428.33 1368.04 1451.91C1368.04 1475.63 1365.05 1495.87 1359.09 1512.63C1353.12 1529.32 1344.49 1542.07 1333.2 1550.88C1321.91 1559.62 1308.23 1563.98 1292.18 1563.98ZM1292.18 1540.55C1308.09 1540.55 1320.45 1532.87 1329.26 1517.53C1338.06 1502.19 1342.47 1480.32 1342.47 1451.91C1342.47 1433.02 1340.44 1416.93 1336.4 1403.65C1332.42 1390.37 1326.67 1380.25 1319.14 1373.29C1311.68 1366.33 1302.69 1362.85 1292.18 1362.85C1276.42 1362.85 1264.09 1370.62 1255.22 1386.18C1246.34 1401.66 1241.9 1423.57 1241.9 1451.91C1241.9 1470.8 1243.89 1486.85 1247.87 1500.06C1251.84 1513.27 1257.56 1523.32 1265.02 1530.21C1272.55 1537.1 1281.6 1540.55 1292.18 1540.55ZM1438.83 1531.17L1437.12 1542.68C1435.92 1550.77 1434.07 1559.44 1431.58 1568.67C1429.17 1577.9 1426.65 1586.6 1424.02 1594.77C1421.39 1602.94 1419.23 1609.44 1417.52 1614.27H1398.34C1399.27 1609.72 1400.48 1603.72 1401.97 1596.26C1403.46 1588.81 1404.95 1580.46 1406.44 1571.23C1408 1562.07 1409.28 1552.69 1410.28 1543.1L1411.56 1531.17H1438.83ZM1637.54 1563.98C1625.04 1563.98 1613.78 1561.5 1603.77 1556.53C1593.75 1551.55 1585.73 1544.74 1579.69 1536.07C1573.66 1527.41 1570.35 1517.53 1569.78 1506.45H1595.35C1596.35 1516.33 1600.82 1524.49 1608.78 1530.96C1616.8 1537.35 1626.39 1540.55 1637.54 1540.55C1646.49 1540.55 1654.44 1538.45 1661.4 1534.26C1668.44 1530.07 1673.94 1524.32 1677.92 1517C1681.97 1509.62 1683.99 1501.27 1683.99 1491.97C1683.99 1482.45 1681.89 1473.96 1677.7 1466.5C1673.58 1458.98 1667.9 1453.05 1660.66 1448.71C1653.41 1444.38 1645.14 1442.18 1635.84 1442.11C1629.16 1442.04 1622.31 1443.07 1615.27 1445.2C1608.24 1447.26 1602.46 1449.92 1597.91 1453.19L1573.19 1450.2L1586.4 1342.82H1699.76V1366.26H1608.56L1600.89 1430.6H1602.17C1606.65 1427.05 1612.26 1424.1 1619 1421.76C1625.75 1419.42 1632.78 1418.24 1640.1 1418.24C1653.45 1418.24 1665.35 1421.44 1675.79 1427.83C1686.3 1434.15 1694.54 1442.82 1700.5 1453.83C1706.54 1464.84 1709.56 1477.41 1709.56 1491.54C1709.56 1505.46 1706.43 1517.89 1700.18 1528.83C1694 1539.69 1685.48 1548.29 1674.61 1554.61C1663.75 1560.86 1651.39 1563.98 1637.54 1563.98ZM1781.6 1531.17L1779.9 1542.68C1778.69 1550.77 1776.84 1559.44 1774.36 1568.67C1771.94 1577.9 1769.42 1586.6 1766.79 1594.77C1764.17 1602.94 1762 1609.44 1760.29 1614.27H1741.12C1742.04 1609.72 1743.25 1603.72 1744.74 1596.26C1746.23 1588.81 1747.72 1580.46 1749.21 1571.23C1750.78 1562.07 1752.06 1552.69 1753.05 1543.1L1754.33 1531.17H1781.6ZM1988.84 1342.82V1561H1962.42V1370.52H1961.14L1907.87 1405.89V1379.04L1962.42 1342.82H1988.84ZM2119.77 1563.98C2107.27 1563.98 2096.01 1561.5 2086 1556.53C2075.98 1551.55 2067.96 1544.74 2061.92 1536.07C2055.88 1527.41 2052.58 1517.53 2052.01 1506.45H2077.58C2078.57 1516.33 2083.05 1524.49 2091 1530.96C2099.03 1537.35 2108.62 1540.55 2119.77 1540.55C2128.72 1540.55 2136.67 1538.45 2143.63 1534.26C2150.66 1530.07 2156.17 1524.32 2160.14 1517C2164.19 1509.62 2166.22 1501.27 2166.22 1491.97C2166.22 1482.45 2164.12 1473.96 2159.93 1466.5C2155.81 1458.98 2150.13 1453.05 2142.88 1448.71C2135.64 1444.38 2127.37 1442.18 2118.06 1442.11C2111.39 1442.04 2104.53 1443.07 2097.5 1445.2C2090.47 1447.26 2084.68 1449.92 2080.14 1453.19L2055.42 1450.2L2068.63 1342.82H2181.98V1366.26H2090.79L2083.12 1430.6H2084.4C2088.87 1427.05 2094.48 1424.1 2101.23 1421.76C2107.98 1419.42 2115.01 1418.24 2122.32 1418.24C2135.68 1418.24 2147.57 1421.44 2158.01 1427.83C2168.52 1434.15 2176.76 1442.82 2182.73 1453.83C2188.77 1464.84 2191.78 1477.41 2191.78 1491.54C2191.78 1505.46 2188.66 1517.89 2182.41 1528.83C2176.23 1539.69 2167.71 1548.29 2156.84 1554.61C2145.97 1560.86 2133.62 1563.98 2119.77 1563.98Z" fill="#737370"/>
<path d="M371.369 2223.27V1950.55H434.438V1971.43H395.233V2202.39H434.438V2223.27H371.369ZM535.458 2198.98C522.958 2198.98 511.701 2196.5 501.687 2191.53C491.673 2186.55 483.647 2179.74 477.61 2171.07C471.574 2162.41 468.271 2152.53 467.703 2141.45H493.271C494.265 2151.33 498.74 2159.49 506.694 2165.96C514.72 2172.35 524.308 2175.55 535.458 2175.55C544.407 2175.55 552.362 2173.45 559.322 2169.26C566.353 2165.07 571.858 2159.32 575.835 2152C579.883 2144.62 581.907 2136.27 581.907 2126.97C581.907 2117.45 579.812 2108.96 575.622 2101.5C571.502 2093.98 565.821 2088.05 558.576 2083.71C551.332 2079.38 543.058 2077.18 533.754 2077.11C527.078 2077.04 520.224 2078.07 513.193 2080.2C506.162 2082.26 500.373 2084.92 495.828 2088.19L471.112 2085.2L484.322 1977.82H597.674V2001.26H506.481L498.811 2065.6H500.089C504.564 2062.05 510.174 2059.1 516.922 2056.76C523.669 2054.42 530.7 2053.24 538.015 2053.24C551.368 2053.24 563.264 2056.44 573.704 2062.83C584.216 2069.15 592.454 2077.82 598.42 2088.83C604.457 2099.84 607.475 2112.41 607.475 2126.54C607.475 2140.46 604.35 2152.89 598.1 2163.83C591.922 2174.69 583.399 2183.29 572.532 2189.61C561.666 2195.86 549.308 2198.98 535.458 2198.98ZM679.519 2166.17L677.815 2177.68C676.607 2185.77 674.761 2194.44 672.275 2203.67C669.86 2212.9 667.339 2221.6 664.711 2229.77C662.083 2237.94 659.917 2244.44 658.212 2249.27H639.036C639.96 2244.72 641.167 2238.72 642.658 2231.26C644.15 2223.81 645.641 2215.46 647.133 2206.23C648.695 2197.07 649.974 2187.69 650.968 2178.1L652.246 2166.17H679.519ZM971.13 1977.82V2196H944.709V2005.52H943.431L890.164 2040.89V2014.04L944.709 1977.82H971.13ZM1105.04 2198.98C1088.99 2198.98 1075.32 2194.62 1064.03 2185.88C1052.73 2177.07 1044.11 2164.32 1038.14 2147.63C1032.17 2130.87 1029.19 2110.63 1029.19 2086.91C1029.19 2063.33 1032.17 2043.19 1038.14 2026.5C1044.18 2009.74 1052.84 1996.96 1064.13 1988.15C1075.5 1979.27 1089.13 1974.84 1105.04 1974.84C1120.95 1974.84 1134.55 1979.27 1145.85 1988.15C1157.21 1996.96 1165.87 2009.74 1171.84 2026.5C1177.88 2043.19 1180.9 2063.33 1180.9 2086.91C1180.9 2110.63 1177.91 2130.87 1171.95 2147.63C1165.98 2164.32 1157.35 2177.07 1146.06 2185.88C1134.77 2194.62 1121.09 2198.98 1105.04 2198.98ZM1105.04 2175.55C1120.95 2175.55 1133.31 2167.87 1142.12 2152.53C1150.92 2137.19 1155.33 2115.32 1155.33 2086.91C1155.33 2068.02 1153.3 2051.93 1149.25 2038.65C1145.28 2025.37 1139.52 2015.25 1132 2008.29C1124.54 2001.33 1115.55 1997.85 1105.04 1997.85C1089.28 1997.85 1076.95 2005.62 1068.08 2021.18C1059.2 2036.66 1054.76 2058.57 1054.76 2086.91C1054.76 2105.8 1056.75 2121.85 1060.72 2135.06C1064.7 2148.27 1070.42 2158.32 1077.88 2165.21C1085.41 2172.1 1094.46 2175.55 1105.04 2175.55ZM1251.69 2166.17L1249.98 2177.68C1248.78 2185.77 1246.93 2194.44 1244.44 2203.67C1242.03 2212.9 1239.51 2221.6 1236.88 2229.77C1234.25 2237.94 1232.08 2244.44 1230.38 2249.27H1211.2C1212.13 2244.72 1213.33 2238.72 1214.83 2231.26C1216.32 2223.81 1217.81 2215.46 1219.3 2206.23C1220.86 2197.07 1222.14 2187.69 1223.14 2178.1L1224.41 2166.17H1251.69ZM1543.3 1977.82V2196H1516.88V2005.52H1515.6L1462.33 2040.89V2014.04L1516.88 1977.82H1543.3ZM1674.23 2198.98C1661.73 2198.98 1650.47 2196.5 1640.46 2191.53C1630.44 2186.55 1622.42 2179.74 1616.38 2171.07C1610.34 2162.41 1607.04 2152.53 1606.47 2141.45H1632.04C1633.03 2151.33 1637.51 2159.49 1645.46 2165.96C1653.49 2172.35 1663.08 2175.55 1674.23 2175.55C1683.18 2175.55 1691.13 2173.45 1698.09 2169.26C1705.12 2165.07 1710.63 2159.32 1714.6 2152C1718.65 2144.62 1720.68 2136.27 1720.68 2126.97C1720.68 2117.45 1718.58 2108.96 1714.39 2101.5C1710.27 2093.98 1704.59 2088.05 1697.35 2083.71C1690.1 2079.38 1681.83 2077.18 1672.52 2077.11C1665.85 2077.04 1658.99 2078.07 1651.96 2080.2C1644.93 2082.26 1639.14 2084.92 1634.6 2088.19L1609.88 2085.2L1623.09 1977.82H1736.44V2001.26H1645.25L1637.58 2065.6H1638.86C1643.33 2062.05 1648.94 2059.1 1655.69 2056.76C1662.44 2054.42 1669.47 2053.24 1676.78 2053.24C1690.14 2053.24 1702.03 2056.44 1712.47 2062.83C1722.99 2069.15 1731.22 2077.82 1737.19 2088.83C1743.23 2099.84 1746.25 2112.41 1746.25 2126.54C1746.25 2140.46 1743.12 2152.89 1736.87 2163.83C1730.69 2174.69 1722.17 2183.29 1711.3 2189.61C1700.44 2195.86 1688.08 2198.98 1674.23 2198.98ZM1818.29 2166.17L1816.58 2177.68C1815.38 2185.77 1813.53 2194.44 1811.04 2203.67C1808.63 2212.9 1806.11 2221.6 1803.48 2229.77C1800.85 2237.94 1798.69 2244.44 1796.98 2249.27H1777.81C1778.73 2244.72 1779.94 2238.72 1781.43 2231.26C1782.92 2223.81 1784.41 2215.46 1785.9 2206.23C1787.46 2197.07 1788.74 2187.69 1789.74 2178.1L1791.02 2166.17H1818.29ZM1948.82 2196V2176.82L2020.84 2097.99C2029.29 2088.76 2036.25 2080.73 2041.72 2073.91C2047.19 2067.02 2051.23 2060.56 2053.86 2054.52C2056.56 2048.41 2057.91 2042.02 2057.91 2035.35C2057.91 2027.68 2056.06 2021.04 2052.37 2015.42C2048.75 2009.81 2043.78 2005.48 2037.46 2002.43C2031.13 1999.37 2024.03 1997.85 2016.15 1997.85C2007.77 1997.85 2000.45 1999.59 1994.2 2003.07C1988.02 2006.48 1983.23 2011.27 1979.82 2017.45C1976.48 2023.63 1974.81 2030.87 1974.81 2039.18H1949.67C1949.67 2026.4 1952.62 2015.18 1958.51 2005.52C1964.41 1995.86 1972.43 1988.33 1982.59 1982.93C1992.82 1977.53 2004.29 1974.84 2017 1974.84C2029.79 1974.84 2041.11 1977.53 2050.99 1982.93C2060.86 1988.33 2068.6 1995.61 2074.21 2004.77C2079.82 2013.93 2082.63 2024.12 2082.63 2035.35C2082.63 2043.37 2081.17 2051.22 2078.26 2058.89C2075.42 2066.49 2070.45 2074.98 2063.34 2084.35C2056.31 2093.66 2046.55 2105.02 2034.05 2118.44L1985.04 2170.86V2172.56H2086.46V2196H1948.82ZM2201.62 2198.98C2185.57 2198.98 2171.9 2194.62 2160.61 2185.88C2149.32 2177.07 2140.69 2164.32 2134.72 2147.63C2128.76 2130.87 2125.77 2110.63 2125.77 2086.91C2125.77 2063.33 2128.76 2043.19 2134.72 2026.5C2140.76 2009.74 2149.42 1996.96 2160.72 1988.15C2172.08 1979.27 2185.72 1974.84 2201.62 1974.84C2217.53 1974.84 2231.13 1979.27 2242.43 1988.15C2253.79 1996.96 2262.46 2009.74 2268.42 2026.5C2274.46 2043.19 2277.48 2063.33 2277.48 2086.91C2277.48 2110.63 2274.49 2130.87 2268.53 2147.63C2262.56 2164.32 2253.93 2177.07 2242.64 2185.88C2231.35 2194.62 2217.68 2198.98 2201.62 2198.98ZM2201.62 2175.55C2217.53 2175.55 2229.89 2167.87 2238.7 2152.53C2247.51 2137.19 2251.91 2115.32 2251.91 2086.91C2251.91 2068.02 2249.88 2051.93 2245.84 2038.65C2241.86 2025.37 2236.11 2015.25 2228.58 2008.29C2221.12 2001.33 2212.14 1997.85 2201.62 1997.85C2185.86 1997.85 2173.54 2005.62 2164.66 2021.18C2155.78 2036.66 2151.34 2058.57 2151.34 2086.91C2151.34 2105.8 2153.33 2121.85 2157.31 2135.06C2161.28 2148.27 2167 2158.32 2174.46 2165.21C2181.99 2172.1 2191.04 2175.55 2201.62 2175.55ZM2368.67 1950.55V2223.27H2305.6V2202.39H2344.81V1971.43H2305.6V1950.55H2368.67Z" fill="#FA8F00"/>
<path d="M408.5 635.014C408.508 639.156 411.872 642.508 416.014 642.5L483.514 642.376C487.656 642.368 491.008 639.004 491 634.862C490.992 630.72 487.628 627.368 483.486 627.376L423.486 627.486L423.376 567.486C423.368 563.344 420.004 559.993 415.862 560C411.72 560.008 408.368 563.372 408.376 567.514L408.5 635.014ZM681.687 357.706L410.687 629.706L421.313 640.294L692.313 368.294L681.687 357.706Z" fill="#82D1F5"/>
<path d="M1644.6 1938.77C1643.92 1942.86 1646.69 1946.72 1650.77 1947.4L1717.36 1958.44C1721.45 1959.11 1725.31 1956.35 1725.99 1952.26C1726.67 1948.18 1723.9 1944.32 1719.82 1943.64L1660.63 1933.83L1670.44 1874.64C1671.11 1870.55 1668.35 1866.69 1664.26 1866.01C1660.18 1865.33 1656.32 1868.1 1655.64 1872.18L1644.6 1938.77ZM2076.64 1626.9L1647.64 1933.9L1656.36 1946.1L2085.36 1639.1L2076.64 1626.9Z" fill="#82D1F5"/>
<path d="M544.58 1901.12C542.439 1904.67 543.578 1909.28 547.123 1911.42L604.907 1946.31C608.453 1948.45 613.063 1947.31 615.204 1943.77C617.345 1940.22 616.207 1935.61 612.661 1933.47L561.297 1902.46L592.31 1851.09C594.451 1847.55 593.312 1842.94 589.766 1840.8C586.22 1838.65 581.61 1839.79 579.469 1843.34L544.58 1901.12ZM1650.2 1625.72L549.201 1897.72L552.799 1912.28L1653.8 1640.28L1650.2 1625.72Z" fill="#82D1F5"/>
<path d="M1046.82 1942.18C1048.03 1946.14 1052.22 1948.38 1056.18 1947.18L1120.77 1927.57C1124.73 1926.36 1126.97 1922.17 1125.77 1918.21C1124.56 1914.25 1120.37 1912.01 1116.41 1913.21L1059 1930.64L1041.57 1873.23C1040.36 1869.27 1036.17 1867.03 1032.21 1868.23C1028.25 1869.44 1026.01 1873.63 1027.21 1877.59L1046.82 1942.18ZM1211.38 1629.47L1047.38 1936.47L1060.62 1943.53L1224.62 1636.53L1211.38 1629.47Z" fill="#82D1F5"/>
<path d="M2125.19 1911.22C2128.62 1908.91 2129.54 1904.25 2127.22 1900.81L2089.56 1844.8C2087.24 1841.37 2082.58 1840.45 2079.15 1842.76C2075.71 1845.08 2074.8 1849.74 2077.11 1853.17L2110.59 1902.96L2060.8 1936.44C2057.37 1938.76 2056.45 1943.42 2058.76 1946.85C2061.08 1950.29 2065.74 1951.2 2069.17 1948.89L2125.19 1911.22ZM730.559 1640.36L2119.56 1912.36L2122.44 1897.64L733.441 1625.64L730.559 1640.36Z" fill="#82D1F5"/>
<path d="M2073.65 1268.5C2072.82 1272.55 2075.44 1276.52 2079.5 1277.35L2145.63 1290.88C2149.68 1291.71 2153.65 1289.1 2154.48 1285.04C2155.31 1280.98 2152.69 1277.02 2148.63 1276.19L2089.85 1264.16L2101.88 1205.37C2102.71 1201.32 2100.1 1197.35 2096.04 1196.52C2091.98 1195.69 2088.02 1198.31 2087.19 1202.37L2073.65 1268.5ZM2488.87 991.741L2076.87 1263.74L2085.13 1276.26L2497.13 1004.26L2488.87 991.741Z" fill="#82D1F5"/>
<path d="M1644.7 1271.71C1645.64 1275.74 1649.67 1278.25 1653.71 1277.3L1719.44 1261.95C1723.47 1261.01 1725.98 1256.98 1725.03 1252.94C1724.09 1248.91 1720.06 1246.4 1716.03 1247.34L1657.6 1260.99L1643.95 1202.56C1643.01 1198.53 1638.98 1196.02 1634.94 1196.97C1630.91 1197.91 1628.4 1201.94 1629.34 1205.97L1644.7 1271.71ZM1814.63 994.042L1645.63 1266.04L1658.37 1273.96L1827.37 1001.96L1814.63 994.042Z" fill="#82D1F5"/>
<path d="M1214.41 1276.58C1218.04 1278.57 1222.6 1277.23 1224.58 1273.59L1256.91 1214.33C1258.89 1210.7 1257.55 1206.14 1253.91 1204.16C1250.28 1202.17 1245.72 1203.51 1243.74 1207.15L1215.01 1259.82L1162.33 1231.09C1158.7 1229.11 1154.14 1230.45 1152.16 1234.09C1150.17 1237.72 1151.51 1242.28 1155.15 1244.26L1214.41 1276.58ZM1130.8 1000.12L1210.8 1272.12L1225.2 1267.88L1145.2 995.884L1130.8 1000.12Z" fill="#82D1F5"/>
<path d="M733.044 1277.43C737.146 1276.85 740.004 1273.06 739.427 1268.96L730.029 1202.11C729.452 1198.01 725.659 1195.15 721.558 1195.73C717.456 1196.31 714.598 1200.1 715.175 1204.2L723.529 1263.62L664.113 1271.97C660.011 1272.55 657.154 1276.34 657.73 1280.44C658.307 1284.54 662.1 1287.4 666.202 1286.83L733.044 1277.43ZM366.487 1003.99L727.487 1275.99L736.513 1264.01L375.513 992.01L366.487 1003.99Z" fill="#82D1F5"/>
<path d="M2493.12 642.499C2497.26 642.432 2500.57 639.02 2500.5 634.878L2499.4 567.387C2499.33 563.245 2495.92 559.943 2491.78 560.01C2487.64 560.077 2484.34 563.489 2484.4 567.631L2485.38 627.623L2425.39 628.599C2421.25 628.667 2417.94 632.079 2418.01 636.22C2418.08 640.362 2421.49 643.665 2425.63 643.597L2493.12 642.499ZM2206.78 368.389L2487.78 640.389L2498.22 629.611L2217.22 357.611L2206.78 368.389Z" fill="#82D1F5"/>
<path d="M1817.36 641.56C1820.99 643.568 1825.55 642.259 1827.56 638.636L1860.28 579.599C1862.29 575.976 1860.98 571.411 1857.36 569.403C1853.74 567.395 1849.17 568.704 1847.16 572.327L1818.08 624.804L1765.6 595.717C1761.98 593.709 1757.41 595.018 1755.4 598.64C1753.39 602.263 1754.7 606.828 1758.33 608.836L1817.36 641.56ZM1735.79 365.067L1813.79 637.067L1828.21 632.933L1750.21 360.933L1735.79 365.067Z" fill="#82D1F5"/>
<path d="M1131.42 638.591C1133.4 642.228 1137.96 643.568 1141.59 641.584L1200.85 609.262C1204.49 607.278 1205.83 602.722 1203.84 599.086C1201.86 595.45 1197.3 594.11 1193.67 596.093L1140.99 624.824L1112.26 572.151C1110.28 568.514 1105.72 567.174 1102.09 569.158C1098.45 571.141 1097.11 575.697 1099.09 579.333L1131.42 638.591ZM1210.8 360.884L1130.8 632.884L1145.2 637.116L1225.2 365.116L1210.8 360.884Z" fill="#82D1F5"/>
</svg>
